<svg xmlns="http://www.w3.org/2000/svg" xmlns:xlink="http://www.w3.org/1999/xlink" width="500" zoomAndPan="magnify" viewBox="0 0 375 374.999991" height="500" preserveAspectRatio="xMidYMid meet" version="1.0"><defs><clipPath id="02532e9fd1"><path d="M 96 124.675781 L 279 124.675781 L 279 250.675781 L 96 250.675781 Z M 96 124.675781 " clip-rule="nonzero"/></clipPath></defs><rect x="-37.5" width="450" fill="#ffffff" y="-37.499999" height="449.999989" fill-opacity="1"/><rect x="-37.5" width="450" fill="#ffffff" y="-37.499999" height="449.999989" fill-opacity="1"/><rect x="-37.5" width="450" fill="#000000" y="-37.499999" height="449.999989" fill-opacity="1"/><g clip-path="url(#02532e9fd1)"><path fill="#ff4500" d="M 256.425781 245.019531 L 118.632812 245.019531 C 110.445312 245.019531 103.644531 239.042969 102.304688 231.207031 L 272.738281 231.207031 C 271.429688 239.042969 264.613281 245.019531 256.425781 245.019531 Z M 112.753906 133.742188 C 112.753906 131.75 114.304688 130.179688 116.289062 130.179688 L 258.734375 130.179688 C 260.722656 130.179688 262.289062 131.75 262.289062 133.742188 L 262.289062 225.636719 L 112.753906 225.636719 Z M 275.726562 225.671875 L 267.828125 225.671875 L 267.828125 133.742188 C 267.828125 128.738281 263.773438 124.660156 258.753906 124.660156 L 116.289062 124.660156 C 111.300781 124.660156 107.230469 128.738281 107.230469 133.742188 L 107.230469 225.636719 L 99.332031 225.636719 C 97.796875 225.671875 96.570312 226.902344 96.570312 228.4375 C 96.570312 240.628906 106.46875 250.554688 118.632812 250.554688 L 256.425781 250.554688 C 268.585938 250.554688 278.488281 240.628906 278.488281 228.4375 C 278.488281 226.902344 277.277344 225.671875 275.726562 225.671875 " fill-opacity="1" fill-rule="nonzero"/></g><path fill="#ff4500" d="M 246.476562 213.332031 L 128.582031 213.332031 L 128.582031 142.660156 L 246.460938 142.660156 L 246.460938 213.332031 Z M 249.238281 137.140625 L 125.820312 137.140625 C 124.285156 137.140625 123.058594 138.371094 123.058594 139.910156 L 123.058594 216.101562 C 123.058594 217.640625 124.285156 218.871094 125.820312 218.871094 L 249.207031 218.871094 C 250.742188 218.871094 251.96875 217.640625 251.96875 216.101562 L 251.96875 139.910156 C 252 138.371094 250.742188 137.140625 249.238281 137.140625 " fill-opacity="1" fill-rule="nonzero"/><path fill="#ff4500" d="M 179.761719 199.945312 C 180.082031 200.058594 180.375 200.105469 180.679688 200.105469 C 181.8125 200.105469 182.863281 199.394531 183.265625 198.261719 L 196.816406 159.566406 C 197.332031 158.109375 196.558594 156.539062 195.152344 156.035156 C 193.699219 155.515625 192.132812 156.292969 191.613281 157.71875 L 178.066406 196.414062 C 177.582031 197.855469 178.355469 199.425781 179.761719 199.945312 Z M 222.832031 178.574219 L 204.390625 193.222656 C 203.195312 194.164062 202.984375 195.894531 203.9375 197.09375 C 204.472656 197.773438 205.292969 198.144531 206.085938 198.144531 C 206.683594 198.144531 207.28125 197.953125 207.796875 197.546875 L 228.953125 180.757812 C 229.601562 180.257812 230.003906 179.445312 230.003906 178.621094 C 230.003906 177.796875 229.617188 177 228.972656 176.46875 L 206.941406 158.449219 C 205.746094 157.492188 204.019531 157.65625 203.082031 158.851562 C 202.113281 160.050781 202.289062 161.78125 203.46875 162.722656 Z M 167.261719 197.546875 C 167.777344 197.953125 168.375 198.144531 168.972656 198.144531 C 169.796875 198.144531 170.585938 197.773438 171.121094 197.09375 C 172.074219 195.894531 171.863281 194.164062 170.667969 193.222656 L 152.222656 178.574219 L 171.589844 162.722656 C 172.769531 161.765625 172.945312 160.019531 171.976562 158.851562 C 171.023438 157.65625 169.277344 157.492188 168.117188 158.449219 L 146.085938 176.46875 C 145.441406 177 145.054688 177.761719 145.054688 178.621094 C 145.054688 179.445312 145.457031 180.257812 146.121094 180.757812 L 167.261719 197.546875 " fill-opacity="1" fill-rule="nonzero"/></svg>