<svg xmlns="http://www.w3.org/2000/svg" xmlns:xlink="http://www.w3.org/1999/xlink" width="500" zoomAndPan="magnify" viewBox="0 0 375 374.999991" height="500" preserveAspectRatio="xMidYMid meet" version="1.0"><defs><g/><clipPath id="31c3820ead"><path d="M 128.097656 115.304688 L 246 115.304688 L 246 196.304688 L 128.097656 196.304688 Z M 128.097656 115.304688 " clip-rule="nonzero"/></clipPath></defs><rect x="-37.5" width="450" fill="#ffffff" y="-37.499999" height="449.999989" fill-opacity="1"/><rect x="-37.5" width="450" fill="#cb6ce6" y="-37.499999" height="449.999989" fill-opacity="1"/><g fill="#000000" fill-opacity="1"><g transform="translate(101.929685, 231.544086)"><g><path d="M 6.734375 0 C 5.867188 0 4.859375 0.046875 3.703125 0.140625 C 2.546875 0.242188 1.78125 0.320312 1.40625 0.375 L 1.671875 -2.078125 C 2.722656 -2.273438 3.429688 -2.578125 3.796875 -2.984375 C 4.171875 -3.390625 4.359375 -4.070312 4.359375 -5.03125 L 4.40625 -19.53125 C 4.40625 -20.226562 4.316406 -20.710938 4.140625 -20.984375 C 3.972656 -21.253906 3.664062 -21.390625 3.21875 -21.390625 C 2.96875 -21.390625 2.71875 -21.375 2.46875 -21.34375 C 2.226562 -21.320312 2.0625 -21.3125 1.96875 -21.3125 L 1.703125 -21.609375 L 2.03125 -23.828125 C 2.425781 -23.828125 3.144531 -23.8125 4.1875 -23.78125 C 5.238281 -23.757812 6.222656 -23.75 7.140625 -23.75 C 8.078125 -23.75 9.125 -23.773438 10.28125 -23.828125 C 11.445312 -23.878906 12.265625 -23.914062 12.734375 -23.9375 C 15.265625 -23.9375 17.195312 -23.441406 18.53125 -22.453125 C 19.863281 -21.472656 20.53125 -20.054688 20.53125 -18.203125 C 20.53125 -16.972656 20.175781 -15.878906 19.46875 -14.921875 C 18.769531 -13.972656 17.789062 -13.179688 16.53125 -12.546875 C 18.132812 -12.117188 19.410156 -11.445312 20.359375 -10.53125 C 21.316406 -9.625 21.796875 -8.457031 21.796875 -7.03125 C 21.796875 -5.570312 21.394531 -4.28125 20.59375 -3.15625 C 19.789062 -2.039062 18.664062 -1.171875 17.21875 -0.546875 C 15.78125 0.0664062 14.109375 0.375 12.203125 0.375 C 11.910156 0.375 11.503906 0.347656 10.984375 0.296875 C 10.472656 0.242188 10.082031 0.207031 9.8125 0.1875 C 9.488281 0.15625 8.992188 0.113281 8.328125 0.0625 C 7.660156 0.0195312 7.128906 0 6.734375 0 Z M 9.28125 -13.609375 C 9.582031 -13.585938 10.175781 -13.523438 11.0625 -13.421875 C 11.945312 -13.328125 12.539062 -13.28125 12.84375 -13.28125 C 12.84375 -13.226562 13.082031 -13.359375 13.5625 -13.671875 C 14.039062 -13.984375 14.46875 -14.429688 14.84375 -15.015625 C 15.226562 -15.609375 15.421875 -16.363281 15.421875 -17.28125 C 15.421875 -18.539062 15 -19.460938 14.15625 -20.046875 C 13.320312 -20.640625 12.019531 -20.9375 10.25 -20.9375 C 10 -20.9375 9.832031 -20.882812 9.75 -20.78125 C 9.664062 -20.6875 9.609375 -20.503906 9.578125 -20.234375 C 9.429688 -18.234375 9.332031 -16.023438 9.28125 -13.609375 Z M 9.0625 -4.921875 C 9.0625 -4.128906 9.332031 -3.566406 9.875 -3.234375 C 10.414062 -2.898438 11.316406 -2.734375 12.578125 -2.734375 C 13.785156 -2.734375 14.734375 -3.066406 15.421875 -3.734375 C 16.117188 -4.398438 16.46875 -5.3125 16.46875 -6.46875 C 16.46875 -7.476562 16.140625 -8.320312 15.484375 -9 C 14.828125 -9.6875 13.882812 -10.164062 12.65625 -10.4375 L 9.21875 -10.390625 Z M 9.0625 -4.921875 "/></g></g></g><g fill="#000000" fill-opacity="1"><g transform="translate(125.126217, 231.544086)"><g><path d="M 0.84375 -1.921875 C 1.414062 -2.046875 1.832031 -2.222656 2.09375 -2.453125 C 2.351562 -2.691406 2.519531 -2.988281 2.59375 -3.34375 C 2.664062 -3.707031 2.703125 -4.242188 2.703125 -4.953125 L 2.703125 -22.125 C 2.703125 -22.789062 2.644531 -23.265625 2.53125 -23.546875 C 2.425781 -23.828125 2.210938 -24.007812 1.890625 -24.09375 C 1.566406 -24.1875 1.035156 -24.207031 0.296875 -24.15625 L 0.140625 -24.3125 L 0.375 -26.265625 C 3.351562 -26.660156 5.84375 -27.054688 7.84375 -27.453125 L 8.109375 -26.75 C 7.753906 -25.9375 7.472656 -23.421875 7.265625 -19.203125 C 7.054688 -14.984375 6.953125 -9.878906 6.953125 -3.890625 C 6.953125 -3.265625 7.035156 -2.828125 7.203125 -2.578125 C 7.378906 -2.335938 7.664062 -2.21875 8.0625 -2.21875 L 9.28125 -2.296875 L 9.390625 -2.078125 L 8.984375 0.109375 L 7.765625 0.078125 C 6.390625 0.0234375 5.40625 0 4.8125 0 C 3.875 0 2.46875 0.109375 0.59375 0.328125 Z M 0.84375 -1.921875 "/></g></g></g><g fill="#000000" fill-opacity="1"><g transform="translate(134.856178, 231.544086)"><g><path d="M 14.140625 0.4375 C 13.046875 0.4375 12.1875 0.195312 11.5625 -0.28125 C 10.9375 -0.757812 10.5625 -1.46875 10.4375 -2.40625 L 10.140625 -2.515625 C 9.347656 -1.703125 8.582031 -1.03125 7.84375 -0.5 C 7.101562 0.03125 6.507812 0.296875 6.0625 0.296875 C 4.613281 0.296875 3.40625 -0.210938 2.4375 -1.234375 C 1.476562 -2.265625 1 -3.539062 1 -5.0625 C 1 -5.832031 1.195312 -6.492188 1.59375 -7.046875 C 1.988281 -7.597656 2.503906 -7.960938 3.140625 -8.140625 L 10.28125 -9.8125 L 10.328125 -10.6875 C 10.328125 -11.75 10.039062 -12.578125 9.46875 -13.171875 C 8.90625 -13.765625 8.128906 -14.0625 7.140625 -14.0625 C 6.472656 -14.0625 5.75 -13.894531 4.96875 -13.5625 C 4.195312 -13.226562 3.476562 -12.816406 2.8125 -12.328125 L 2.484375 -12.46875 L 1.84375 -14.6875 C 3.082031 -15.375 4.378906 -16.015625 5.734375 -16.609375 C 7.085938 -17.203125 8.050781 -17.5 8.625 -17.5 C 10.664062 -17.5 12.195312 -17.035156 13.21875 -16.109375 C 14.25 -15.179688 14.765625 -13.96875 14.765625 -12.46875 C 14.765625 -11.925781 14.65625 -10.816406 14.4375 -9.140625 C 14.15625 -6.742188 14.015625 -5.3125 14.015625 -4.84375 C 14.015625 -4.375 14.140625 -4.003906 14.390625 -3.734375 C 14.640625 -3.460938 14.960938 -3.328125 15.359375 -3.328125 C 15.648438 -3.328125 15.960938 -3.394531 16.296875 -3.53125 C 16.628906 -3.664062 16.90625 -3.804688 17.125 -3.953125 L 17.6875 -3.1875 C 17.238281 -2.394531 16.6875 -1.632812 16.03125 -0.90625 C 15.382812 -0.175781 14.753906 0.269531 14.140625 0.4375 Z M 7.4375 -3.21875 C 7.800781 -3.21875 8.238281 -3.316406 8.75 -3.515625 C 9.257812 -3.710938 9.707031 -3.972656 10.09375 -4.296875 L 10.21875 -7.8125 L 6.25 -6.703125 C 5.65625 -6.546875 5.359375 -6.132812 5.359375 -5.46875 C 5.359375 -4.832031 5.550781 -4.296875 5.9375 -3.859375 C 6.320312 -3.429688 6.820312 -3.21875 7.4375 -3.21875 Z M 7.4375 -3.21875 "/></g></g></g><g fill="#000000" fill-opacity="1"><g transform="translate(152.725279, 231.544086)"><g><path d="M 9.109375 0.4375 C 6.585938 0.4375 4.597656 -0.316406 3.140625 -1.828125 C 1.691406 -3.347656 0.96875 -5.425781 0.96875 -8.0625 C 0.96875 -9.882812 1.347656 -11.507812 2.109375 -12.9375 C 2.867188 -14.375 3.929688 -15.492188 5.296875 -16.296875 C 6.671875 -17.097656 8.222656 -17.5 9.953125 -17.5 C 10.765625 -17.5 11.519531 -17.441406 12.21875 -17.328125 C 12.925781 -17.222656 13.484375 -17.113281 13.890625 -17 C 14.296875 -16.882812 14.550781 -16.804688 14.65625 -16.765625 L 14.796875 -16.421875 C 14.773438 -16.273438 14.707031 -15.9375 14.59375 -15.40625 C 14.488281 -14.875 14.375 -14.1875 14.25 -13.34375 C 14.125 -12.507812 14.035156 -11.640625 13.984375 -10.734375 L 11.625 -10.578125 L 11.625 -11.796875 C 11.625 -12.640625 11.414062 -13.289062 11 -13.75 C 10.59375 -14.207031 10.019531 -14.4375 9.28125 -14.4375 C 8.125 -14.4375 7.242188 -14.007812 6.640625 -13.15625 C 6.035156 -12.300781 5.734375 -11.085938 5.734375 -9.515625 C 5.734375 -7.484375 6.085938 -5.925781 6.796875 -4.84375 C 7.515625 -3.757812 8.53125 -3.21875 9.84375 -3.21875 C 10.457031 -3.21875 11.050781 -3.296875 11.625 -3.453125 C 12.207031 -3.617188 12.691406 -3.785156 13.078125 -3.953125 C 13.460938 -4.128906 13.703125 -4.242188 13.796875 -4.296875 L 14.0625 -4.1875 L 14.65625 -2.296875 C 14.476562 -2.148438 14.082031 -1.859375 13.46875 -1.421875 C 12.851562 -0.992188 12.132812 -0.578125 11.3125 -0.171875 C 10.5 0.234375 9.765625 0.4375 9.109375 0.4375 Z M 9.109375 0.4375 "/></g></g></g><g fill="#000000" fill-opacity="1"><g transform="translate(168.670583, 231.544086)"><g><path d="M 0.921875 -2.078125 C 1.460938 -2.148438 1.859375 -2.285156 2.109375 -2.484375 C 2.359375 -2.679688 2.519531 -2.957031 2.59375 -3.3125 C 2.664062 -3.664062 2.703125 -4.210938 2.703125 -4.953125 L 2.703125 -22.125 C 2.703125 -22.769531 2.617188 -23.25 2.453125 -23.5625 C 2.296875 -23.882812 2.035156 -24.070312 1.671875 -24.125 C 1.421875 -24.175781 1.207031 -24.203125 1.03125 -24.203125 L 0.21875 -24.15625 C 0.195312 -24.257812 0.1875 -24.421875 0.1875 -24.640625 L 0.375 -26.265625 C 1.78125 -26.441406 3.257812 -26.664062 4.8125 -26.9375 C 6.363281 -27.207031 7.375 -27.378906 7.84375 -27.453125 L 8.109375 -26.75 C 7.785156 -26.351562 7.507812 -23.984375 7.28125 -19.640625 C 7.0625 -15.304688 6.953125 -10.054688 6.953125 -3.890625 C 6.953125 -3.265625 7.035156 -2.828125 7.203125 -2.578125 C 7.378906 -2.335938 7.664062 -2.21875 8.0625 -2.21875 C 8.238281 -2.21875 8.425781 -2.226562 8.625 -2.25 C 8.820312 -2.28125 8.957031 -2.296875 9.03125 -2.296875 L 9.140625 -2.078125 L 8.734375 0.140625 C 8.460938 0.117188 7.9375 0.0859375 7.15625 0.046875 C 6.382812 0.015625 5.578125 0 4.734375 0 C 3.972656 0 3.160156 0.03125 2.296875 0.09375 C 1.429688 0.15625 0.875 0.195312 0.625 0.21875 Z M 7.625 -9.515625 L 11.21875 -13.140625 C 11.507812 -13.429688 11.707031 -13.671875 11.8125 -13.859375 C 11.925781 -14.046875 11.984375 -14.222656 11.984375 -14.390625 C 11.984375 -14.660156 11.832031 -14.851562 11.53125 -14.96875 C 11.238281 -15.082031 10.738281 -15.140625 10.03125 -15.140625 L 9.921875 -15.3125 L 10.25 -17.125 C 10.539062 -17.125 11.113281 -17.113281 11.96875 -17.09375 C 12.820312 -17.070312 13.738281 -17.0625 14.71875 -17.0625 C 15.414062 -17.0625 16.179688 -17.082031 17.015625 -17.125 C 17.859375 -17.175781 18.398438 -17.210938 18.640625 -17.234375 L 18.765625 -17.0625 L 18.46875 -14.984375 C 17.601562 -14.660156 16.757812 -14.164062 15.9375 -13.5 C 15.125 -12.832031 14.101562 -11.894531 12.875 -10.6875 C 12.875 -10.6875 12.53125 -10.34375 11.84375 -9.65625 L 14.984375 -4.84375 C 15.628906 -3.90625 16.242188 -3.21875 16.828125 -2.78125 C 17.421875 -2.351562 18.078125 -2.117188 18.796875 -2.078125 L 18.9375 -1.78125 L 18.6875 0.03125 C 18.488281 0.0820312 18.078125 0.160156 17.453125 0.265625 C 16.835938 0.378906 16.347656 0.453125 15.984375 0.484375 C 15.335938 0.503906 14.796875 0.453125 14.359375 0.328125 C 13.765625 0.203125 13.238281 -0.0703125 12.78125 -0.5 C 12.320312 -0.925781 11.820312 -1.597656 11.28125 -2.515625 L 7.546875 -8.65625 Z M 7.625 -9.515625 "/></g></g></g><g fill="#000000" fill-opacity="1"><g transform="translate(187.79755, 231.544086)"><g/></g></g><g fill="#000000" fill-opacity="1"><g transform="translate(194.234863, 231.544086)"><g><path d="M 12.0625 0.4375 C 9.8125 0.4375 7.859375 -0.03125 6.203125 -0.96875 C 4.554688 -1.90625 3.289062 -3.25 2.40625 -5 C 1.519531 -6.75 1.078125 -8.820312 1.078125 -11.21875 C 1.078125 -13.832031 1.601562 -16.113281 2.65625 -18.0625 C 3.71875 -20.007812 5.226562 -21.519531 7.1875 -22.59375 C 9.15625 -23.664062 11.429688 -24.203125 14.015625 -24.203125 C 14.929688 -24.203125 15.910156 -24.132812 16.953125 -24 C 18.003906 -23.863281 18.898438 -23.71875 19.640625 -23.5625 C 20.378906 -23.414062 20.847656 -23.316406 21.046875 -23.265625 L 21.28125 -22.796875 C 21.226562 -22.617188 21.140625 -22.222656 21.015625 -21.609375 C 20.890625 -20.992188 20.753906 -20.164062 20.609375 -19.125 C 20.460938 -18.09375 20.351562 -17 20.28125 -15.84375 L 16.765625 -15.609375 C 16.765625 -15.710938 16.773438 -15.941406 16.796875 -16.296875 C 16.816406 -16.648438 16.828125 -17.0625 16.828125 -17.53125 C 16.828125 -18.625 16.492188 -19.421875 15.828125 -19.921875 C 15.171875 -20.429688 14.125 -20.6875 12.6875 -20.6875 C 10.738281 -20.6875 9.253906 -19.992188 8.234375 -18.609375 C 7.210938 -17.222656 6.703125 -15.1875 6.703125 -12.5 C 6.703125 -9.46875 7.25 -7.113281 8.34375 -5.4375 C 9.4375 -3.757812 10.972656 -2.921875 12.953125 -2.921875 C 14.304688 -2.921875 15.363281 -3.332031 16.125 -4.15625 C 16.894531 -4.988281 17.425781 -6.304688 17.71875 -8.109375 L 21.28125 -8.328125 C 21.195312 -7.910156 21.0625 -6.984375 20.875 -5.546875 C 20.695312 -4.117188 20.582031 -2.765625 20.53125 -1.484375 L 20.171875 -1.03125 C 20.171875 -1.007812 19.753906 -0.867188 18.921875 -0.609375 C 18.097656 -0.347656 17.085938 -0.109375 15.890625 0.109375 C 14.691406 0.328125 13.414062 0.4375 12.0625 0.4375 Z M 12.0625 0.4375 "/></g></g></g><g fill="#000000" fill-opacity="1"><g transform="translate(217.024442, 231.544086)"><g><path d="M 8.984375 0.4375 C 7.429688 0.4375 6.0625 0.0859375 4.875 -0.609375 C 3.695312 -1.316406 2.785156 -2.3125 2.140625 -3.59375 C 1.503906 -4.875 1.1875 -6.351562 1.1875 -8.03125 C 1.1875 -9.875 1.5625 -11.507812 2.3125 -12.9375 C 3.0625 -14.375 4.109375 -15.492188 5.453125 -16.296875 C 6.796875 -17.097656 8.34375 -17.5 10.09375 -17.5 C 12.488281 -17.5 14.382812 -16.738281 15.78125 -15.21875 C 17.175781 -13.707031 17.875 -11.65625 17.875 -9.0625 C 17.875 -7.21875 17.503906 -5.570312 16.765625 -4.125 C 16.023438 -2.6875 14.984375 -1.566406 13.640625 -0.765625 C 12.296875 0.0351562 10.742188 0.4375 8.984375 0.4375 Z M 9.734375 -2.328125 C 10.796875 -2.328125 11.601562 -2.753906 12.15625 -3.609375 C 12.707031 -4.460938 12.984375 -5.710938 12.984375 -7.359375 C 12.984375 -9.679688 12.660156 -11.429688 12.015625 -12.609375 C 11.378906 -13.796875 10.457031 -14.390625 9.25 -14.390625 C 8.1875 -14.390625 7.378906 -13.960938 6.828125 -13.109375 C 6.273438 -12.265625 6 -11.015625 6 -9.359375 C 6 -7.046875 6.316406 -5.296875 6.953125 -4.109375 C 7.597656 -2.921875 8.523438 -2.328125 9.734375 -2.328125 Z M 9.734375 -2.328125 "/></g></g></g><g fill="#000000" fill-opacity="1"><g transform="translate(236.114411, 231.544086)"><g><path d="M 16.25 0.4375 C 14.050781 0.4375 12.816406 -0.445312 12.546875 -2.21875 L 12.328125 -2.296875 C 9.929688 -0.566406 8.484375 0.296875 7.984375 0.296875 C 5.835938 0.296875 4.128906 -0.425781 2.859375 -1.875 C 1.597656 -3.332031 0.96875 -5.3125 0.96875 -7.8125 C 0.96875 -9.632812 1.363281 -11.28125 2.15625 -12.75 C 2.957031 -14.21875 4.066406 -15.363281 5.484375 -16.1875 C 6.910156 -17.007812 8.507812 -17.421875 10.28125 -17.421875 C 10.875 -17.421875 11.515625 -17.382812 12.203125 -17.3125 L 12.203125 -22.09375 C 12.203125 -22.851562 12.082031 -23.382812 11.84375 -23.6875 C 11.613281 -24 11.21875 -24.15625 10.65625 -24.15625 C 10.457031 -24.15625 10.269531 -24.144531 10.09375 -24.125 C 9.925781 -24.101562 9.816406 -24.078125 9.765625 -24.046875 L 9.984375 -26.234375 C 11.441406 -26.398438 12.910156 -26.617188 14.390625 -26.890625 C 15.867188 -27.171875 16.832031 -27.359375 17.28125 -27.453125 L 17.609375 -26.828125 C 17.285156 -26.359375 17.015625 -23.953125 16.796875 -19.609375 C 16.578125 -15.265625 16.46875 -10.34375 16.46875 -4.84375 C 16.46875 -4.375 16.570312 -4.003906 16.78125 -3.734375 C 16.988281 -3.460938 17.28125 -3.328125 17.65625 -3.328125 C 17.925781 -3.328125 18.179688 -3.375 18.421875 -3.46875 C 18.671875 -3.570312 18.875 -3.671875 19.03125 -3.765625 C 19.195312 -3.867188 19.300781 -3.929688 19.34375 -3.953125 L 19.9375 -3.1875 C 19.863281 -3.03125 19.65625 -2.707031 19.3125 -2.21875 C 18.96875 -1.726562 18.515625 -1.210938 17.953125 -0.671875 C 17.398438 -0.128906 16.832031 0.238281 16.25 0.4375 Z M 9.359375 -3.109375 C 9.753906 -3.109375 10.164062 -3.195312 10.59375 -3.375 C 11.03125 -3.5625 11.390625 -3.753906 11.671875 -3.953125 C 11.953125 -4.148438 12.128906 -4.285156 12.203125 -4.359375 L 12.203125 -13.734375 C 12.160156 -13.753906 12.015625 -13.8125 11.765625 -13.90625 C 11.515625 -14.007812 11.191406 -14.109375 10.796875 -14.203125 C 10.410156 -14.304688 9.96875 -14.359375 9.46875 -14.359375 C 8.257812 -14.359375 7.320312 -13.90625 6.65625 -13 C 5.988281 -12.101562 5.65625 -10.828125 5.65625 -9.171875 C 5.65625 -7.347656 5.992188 -5.878906 6.671875 -4.765625 C 7.359375 -3.660156 8.253906 -3.109375 9.359375 -3.109375 Z M 9.359375 -3.109375 "/></g></g></g><g fill="#000000" fill-opacity="1"><g transform="translate(255.981296, 231.544086)"><g><path d="M 9.328125 0.4375 C 6.734375 0.4375 4.691406 -0.316406 3.203125 -1.828125 C 1.710938 -3.347656 0.96875 -5.425781 0.96875 -8.0625 C 0.96875 -9.84375 1.347656 -11.445312 2.109375 -12.875 C 2.867188 -14.300781 3.914062 -15.425781 5.25 -16.25 C 6.582031 -17.082031 8.0625 -17.5 9.6875 -17.5 C 13.832031 -17.5 15.90625 -15.40625 15.90625 -11.21875 C 15.90625 -10.46875 15.820312 -9.773438 15.65625 -9.140625 L 15.203125 -8.6875 L 5.625 -8.6875 C 5.644531 -6.894531 6.066406 -5.519531 6.890625 -4.5625 C 7.722656 -3.613281 8.878906 -3.140625 10.359375 -3.140625 C 11.640625 -3.140625 13.109375 -3.507812 14.765625 -4.25 L 15.015625 -4.109375 L 15.609375 -2.296875 C 14.703125 -1.609375 13.648438 -0.976562 12.453125 -0.40625 C 11.253906 0.15625 10.210938 0.4375 9.328125 0.4375 Z M 10.6875 -11.03125 C 10.988281 -11.050781 11.179688 -11.109375 11.265625 -11.203125 C 11.347656 -11.304688 11.390625 -11.53125 11.390625 -11.875 C 11.390625 -13.695312 10.613281 -14.609375 9.0625 -14.609375 C 8.101562 -14.609375 7.320312 -14.273438 6.71875 -13.609375 C 6.113281 -12.941406 5.75 -11.984375 5.625 -10.734375 Z M 10.6875 -11.03125 "/></g></g></g><g fill="#ffffff" fill-opacity="1"><g transform="translate(134.135997, 255.494105)"><g><path d="M 15.515625 -12.65625 C 15.804688 -12.65625 16.070312 -12.539062 16.3125 -12.3125 C 16.5625 -12.09375 16.6875 -11.816406 16.6875 -11.484375 C 16.6875 -11.378906 16.664062 -11.257812 16.625 -11.125 L 13.078125 -0.6875 C 13.015625 -0.476562 12.890625 -0.3125 12.703125 -0.1875 C 12.523438 -0.0703125 12.328125 -0.0078125 12.109375 0 C 11.898438 0 11.695312 -0.0546875 11.5 -0.171875 C 11.3125 -0.296875 11.160156 -0.472656 11.046875 -0.703125 L 8.5 -6.515625 L 5.921875 -0.703125 C 5.816406 -0.472656 5.664062 -0.296875 5.46875 -0.171875 C 5.28125 -0.0546875 5.078125 0 4.859375 0 C 4.640625 -0.0078125 4.441406 -0.0703125 4.265625 -0.1875 C 4.085938 -0.3125 3.960938 -0.476562 3.890625 -0.6875 L 0.34375 -11.125 C 0.300781 -11.257812 0.28125 -11.378906 0.28125 -11.484375 C 0.28125 -11.816406 0.40625 -12.09375 0.65625 -12.3125 C 0.90625 -12.539062 1.175781 -12.65625 1.46875 -12.65625 C 1.71875 -12.65625 1.9375 -12.59375 2.125 -12.46875 C 2.3125 -12.34375 2.441406 -12.171875 2.515625 -11.953125 L 5.203125 -3.8125 L 7.546875 -9.4375 C 7.640625 -9.644531 7.773438 -9.8125 7.953125 -9.9375 C 8.128906 -10.070312 8.332031 -10.128906 8.5625 -10.109375 C 8.789062 -10.128906 8.992188 -10.070312 9.171875 -9.9375 C 9.347656 -9.8125 9.484375 -9.644531 9.578125 -9.4375 L 11.796875 -3.875 L 14.453125 -11.953125 C 14.523438 -12.171875 14.660156 -12.34375 14.859375 -12.46875 C 15.054688 -12.59375 15.273438 -12.65625 15.515625 -12.65625 Z M 15.515625 -12.65625 "/></g></g></g><g fill="#ffffff" fill-opacity="1"><g transform="translate(151.631943, 255.494105)"><g><path d="M 9.8125 -5.046875 C 9.800781 -4.753906 9.6875 -4.515625 9.46875 -4.328125 C 9.25 -4.148438 9 -4.0625 8.71875 -4.0625 L 2.765625 -4.0625 C 2.910156 -3.351562 3.238281 -2.796875 3.75 -2.390625 C 4.269531 -1.992188 4.859375 -1.796875 5.515625 -1.796875 C 6.003906 -1.796875 6.382812 -1.835938 6.65625 -1.921875 C 6.9375 -2.015625 7.15625 -2.113281 7.3125 -2.21875 C 7.476562 -2.320312 7.59375 -2.394531 7.65625 -2.4375 C 7.863281 -2.539062 8.066406 -2.59375 8.265625 -2.59375 C 8.515625 -2.59375 8.726562 -2.5 8.90625 -2.3125 C 9.09375 -2.132812 9.1875 -1.925781 9.1875 -1.6875 C 9.1875 -1.363281 9.015625 -1.070312 8.671875 -0.8125 C 8.335938 -0.53125 7.890625 -0.289062 7.328125 -0.09375 C 6.765625 0.09375 6.191406 0.1875 5.609375 0.1875 C 4.609375 0.1875 3.734375 -0.0195312 2.984375 -0.4375 C 2.234375 -0.863281 1.648438 -1.445312 1.234375 -2.1875 C 0.828125 -2.925781 0.625 -3.757812 0.625 -4.6875 C 0.625 -5.71875 0.835938 -6.617188 1.265625 -7.390625 C 1.703125 -8.171875 2.273438 -8.769531 2.984375 -9.1875 C 3.691406 -9.601562 4.445312 -9.8125 5.25 -9.8125 C 6.039062 -9.8125 6.785156 -9.59375 7.484375 -9.15625 C 8.191406 -8.726562 8.753906 -8.144531 9.171875 -7.40625 C 9.597656 -6.675781 9.8125 -5.890625 9.8125 -5.046875 Z M 5.25 -7.828125 C 3.863281 -7.828125 3.046875 -7.175781 2.796875 -5.875 L 7.5 -5.875 L 7.5 -6 C 7.457031 -6.5 7.210938 -6.925781 6.765625 -7.28125 C 6.328125 -7.644531 5.820312 -7.828125 5.25 -7.828125 Z M 5.25 -7.828125 "/></g></g></g><g fill="#ffffff" fill-opacity="1"><g transform="translate(162.593909, 255.494105)"><g><path d="M 6.15625 -9.8125 C 6.976562 -9.8125 7.722656 -9.597656 8.390625 -9.171875 C 9.066406 -8.742188 9.597656 -8.148438 9.984375 -7.390625 C 10.378906 -6.640625 10.578125 -5.785156 10.578125 -4.828125 C 10.578125 -3.867188 10.382812 -3.003906 10 -2.234375 C 9.625 -1.472656 9.101562 -0.878906 8.4375 -0.453125 C 7.769531 -0.0234375 7.035156 0.1875 6.234375 0.1875 C 5.648438 0.1875 5.101562 0.0703125 4.59375 -0.15625 C 4.082031 -0.394531 3.660156 -0.6875 3.328125 -1.03125 L 3.328125 -0.921875 C 3.328125 -0.609375 3.222656 -0.34375 3.015625 -0.125 C 2.816406 0.0820312 2.5625 0.1875 2.25 0.1875 C 1.9375 0.1875 1.675781 0.0820312 1.46875 -0.125 C 1.269531 -0.332031 1.171875 -0.597656 1.171875 -0.921875 L 1.171875 -12.21875 C 1.171875 -12.53125 1.269531 -12.789062 1.46875 -13 C 1.675781 -13.207031 1.9375 -13.3125 2.25 -13.3125 C 2.5625 -13.3125 2.816406 -13.207031 3.015625 -13 C 3.222656 -12.789062 3.328125 -12.53125 3.328125 -12.21875 L 3.328125 -8.453125 C 3.617188 -8.816406 4.019531 -9.132812 4.53125 -9.40625 C 5.050781 -9.675781 5.59375 -9.8125 6.15625 -9.8125 Z M 5.890625 -1.796875 C 6.648438 -1.796875 7.273438 -2.082031 7.765625 -2.65625 C 8.265625 -3.238281 8.515625 -3.960938 8.515625 -4.828125 C 8.515625 -5.691406 8.269531 -6.40625 7.78125 -6.96875 C 7.300781 -7.539062 6.671875 -7.828125 5.890625 -7.828125 C 5.109375 -7.828125 4.46875 -7.539062 3.96875 -6.96875 C 3.476562 -6.40625 3.234375 -5.691406 3.234375 -4.828125 C 3.234375 -3.960938 3.476562 -3.238281 3.96875 -2.65625 C 4.46875 -2.082031 5.109375 -1.796875 5.890625 -1.796875 Z M 5.890625 -1.796875 "/></g></g></g><g fill="#ffffff" fill-opacity="1"><g transform="translate(174.329873, 255.494105)"><g/></g></g><g fill="#ffffff" fill-opacity="1"><g transform="translate(179.891864, 255.494105)"><g><path d="M 6.75 -12.59375 C 7.875 -12.59375 8.84375 -12.3125 9.65625 -11.75 C 10.46875 -11.195312 11.085938 -10.441406 11.515625 -9.484375 C 11.941406 -8.535156 12.15625 -7.472656 12.15625 -6.296875 C 12.15625 -5.117188 11.941406 -4.050781 11.515625 -3.09375 C 11.085938 -2.144531 10.46875 -1.390625 9.65625 -0.828125 C 8.84375 -0.273438 7.875 0 6.75 0 L 2.453125 0 C 2.140625 0 1.875 -0.101562 1.65625 -0.3125 C 1.445312 -0.519531 1.34375 -0.78125 1.34375 -1.09375 L 1.34375 -11.5 C 1.34375 -11.8125 1.445312 -12.070312 1.65625 -12.28125 C 1.875 -12.488281 2.140625 -12.59375 2.453125 -12.59375 Z M 6.5625 -2.0625 C 7.644531 -2.0625 8.457031 -2.460938 9 -3.265625 C 9.539062 -4.066406 9.8125 -5.078125 9.8125 -6.296875 C 9.8125 -7.523438 9.535156 -8.535156 8.984375 -9.328125 C 8.441406 -10.128906 7.632812 -10.53125 6.5625 -10.53125 L 3.59375 -10.53125 L 3.59375 -2.0625 Z M 6.5625 -2.0625 "/></g></g></g><g fill="#ffffff" fill-opacity="1"><g transform="translate(193.28382, 255.494105)"><g><path d="M 9.8125 -5.046875 C 9.800781 -4.753906 9.6875 -4.515625 9.46875 -4.328125 C 9.25 -4.148438 9 -4.0625 8.71875 -4.0625 L 2.765625 -4.0625 C 2.910156 -3.351562 3.238281 -2.796875 3.75 -2.390625 C 4.269531 -1.992188 4.859375 -1.796875 5.515625 -1.796875 C 6.003906 -1.796875 6.382812 -1.835938 6.65625 -1.921875 C 6.9375 -2.015625 7.15625 -2.113281 7.3125 -2.21875 C 7.476562 -2.320312 7.59375 -2.394531 7.65625 -2.4375 C 7.863281 -2.539062 8.066406 -2.59375 8.265625 -2.59375 C 8.515625 -2.59375 8.726562 -2.5 8.90625 -2.3125 C 9.09375 -2.132812 9.1875 -1.925781 9.1875 -1.6875 C 9.1875 -1.363281 9.015625 -1.070312 8.671875 -0.8125 C 8.335938 -0.53125 7.890625 -0.289062 7.328125 -0.09375 C 6.765625 0.09375 6.191406 0.1875 5.609375 0.1875 C 4.609375 0.1875 3.734375 -0.0195312 2.984375 -0.4375 C 2.234375 -0.863281 1.648438 -1.445312 1.234375 -2.1875 C 0.828125 -2.925781 0.625 -3.757812 0.625 -4.6875 C 0.625 -5.71875 0.835938 -6.617188 1.265625 -7.390625 C 1.703125 -8.171875 2.273438 -8.769531 2.984375 -9.1875 C 3.691406 -9.601562 4.445312 -9.8125 5.25 -9.8125 C 6.039062 -9.8125 6.785156 -9.59375 7.484375 -9.15625 C 8.191406 -8.726562 8.753906 -8.144531 9.171875 -7.40625 C 9.597656 -6.675781 9.8125 -5.890625 9.8125 -5.046875 Z M 5.25 -7.828125 C 3.863281 -7.828125 3.046875 -7.175781 2.796875 -5.875 L 7.5 -5.875 L 7.5 -6 C 7.457031 -6.5 7.210938 -6.925781 6.765625 -7.28125 C 6.328125 -7.644531 5.820312 -7.828125 5.25 -7.828125 Z M 5.25 -7.828125 "/></g></g></g><g fill="#ffffff" fill-opacity="1"><g transform="translate(204.245783, 255.494105)"><g><path d="M 0.609375 -1.5 C 0.503906 -1.632812 0.453125 -1.8125 0.453125 -2.03125 C 0.453125 -2.34375 0.609375 -2.609375 0.921875 -2.828125 C 1.085938 -2.929688 1.257812 -2.984375 1.4375 -2.984375 C 1.6875 -2.984375 1.925781 -2.867188 2.15625 -2.640625 C 2.519531 -2.273438 2.894531 -2 3.28125 -1.8125 C 3.675781 -1.632812 4.148438 -1.546875 4.703125 -1.546875 C 5.640625 -1.585938 6.109375 -1.941406 6.109375 -2.609375 C 6.109375 -2.953125 5.945312 -3.210938 5.625 -3.390625 C 5.300781 -3.578125 4.804688 -3.757812 4.140625 -3.9375 C 3.441406 -4.132812 2.875 -4.328125 2.4375 -4.515625 C 2 -4.710938 1.617188 -5.003906 1.296875 -5.390625 C 0.984375 -5.773438 0.828125 -6.300781 0.828125 -6.96875 C 0.828125 -7.539062 0.988281 -8.039062 1.3125 -8.46875 C 1.644531 -8.894531 2.078125 -9.222656 2.609375 -9.453125 C 3.148438 -9.691406 3.71875 -9.8125 4.3125 -9.8125 C 4.925781 -9.8125 5.539062 -9.695312 6.15625 -9.46875 C 6.769531 -9.238281 7.25 -8.898438 7.59375 -8.453125 C 7.75 -8.265625 7.828125 -8.050781 7.828125 -7.8125 C 7.828125 -7.53125 7.710938 -7.300781 7.484375 -7.125 C 7.316406 -7 7.125 -6.9375 6.90625 -6.9375 C 6.644531 -6.9375 6.429688 -7.019531 6.265625 -7.1875 C 6.046875 -7.445312 5.765625 -7.65625 5.421875 -7.8125 C 5.078125 -7.96875 4.691406 -8.046875 4.265625 -8.046875 C 3.347656 -8.046875 2.890625 -7.71875 2.890625 -7.0625 C 2.890625 -6.789062 2.972656 -6.570312 3.140625 -6.40625 C 3.316406 -6.25 3.53125 -6.125 3.78125 -6.03125 C 4.039062 -5.945312 4.40625 -5.835938 4.875 -5.703125 C 5.519531 -5.523438 6.054688 -5.335938 6.484375 -5.140625 C 6.921875 -4.953125 7.289062 -4.660156 7.59375 -4.265625 C 7.894531 -3.867188 8.046875 -3.347656 8.046875 -2.703125 C 8.046875 -2.109375 7.867188 -1.59375 7.515625 -1.15625 C 7.171875 -0.71875 6.722656 -0.382812 6.171875 -0.15625 C 5.628906 0.0703125 5.070312 0.1875 4.5 0.1875 C 3.707031 0.1875 2.96875 0.0546875 2.28125 -0.203125 C 1.601562 -0.472656 1.046875 -0.90625 0.609375 -1.5 Z M 0.609375 -1.5 "/></g></g></g><g fill="#ffffff" fill-opacity="1"><g transform="translate(213.443754, 255.494105)"><g><path d="M 3.203125 -1.09375 C 3.203125 -0.78125 3.097656 -0.519531 2.890625 -0.3125 C 2.691406 -0.101562 2.4375 0 2.125 0 C 1.8125 0 1.550781 -0.101562 1.34375 -0.3125 C 1.144531 -0.519531 1.046875 -0.78125 1.046875 -1.09375 L 1.046875 -8.53125 C 1.046875 -8.84375 1.144531 -9.101562 1.34375 -9.3125 C 1.550781 -9.519531 1.8125 -9.625 2.125 -9.625 C 2.4375 -9.625 2.691406 -9.519531 2.890625 -9.3125 C 3.097656 -9.101562 3.203125 -8.84375 3.203125 -8.53125 Z M 2.109375 -10.796875 C 1.703125 -10.796875 1.410156 -10.863281 1.234375 -11 C 1.066406 -11.132812 0.984375 -11.367188 0.984375 -11.703125 L 0.984375 -12.046875 C 0.984375 -12.378906 1.070312 -12.609375 1.25 -12.734375 C 1.4375 -12.867188 1.726562 -12.9375 2.125 -12.9375 C 2.539062 -12.9375 2.832031 -12.867188 3 -12.734375 C 3.164062 -12.609375 3.25 -12.378906 3.25 -12.046875 L 3.25 -11.703125 C 3.25 -11.347656 3.160156 -11.109375 2.984375 -10.984375 C 2.816406 -10.859375 2.523438 -10.796875 2.109375 -10.796875 Z M 2.109375 -10.796875 "/></g></g></g><g fill="#ffffff" fill-opacity="1"><g transform="translate(218.213742, 255.494105)"><g><path d="M 9.140625 -9.8125 C 9.453125 -9.8125 9.707031 -9.707031 9.90625 -9.5 C 10.113281 -9.300781 10.21875 -9.039062 10.21875 -8.71875 L 10.21875 -0.703125 C 10.21875 0.765625 9.765625 1.847656 8.859375 2.546875 C 7.953125 3.242188 6.804688 3.59375 5.421875 3.59375 C 5.054688 3.59375 4.554688 3.53125 3.921875 3.40625 C 3.296875 3.289062 2.851562 3.175781 2.59375 3.0625 C 2 2.8125 1.703125 2.460938 1.703125 2.015625 C 1.703125 1.929688 1.722656 1.835938 1.765625 1.734375 C 1.835938 1.460938 1.957031 1.257812 2.125 1.125 C 2.300781 0.988281 2.492188 0.921875 2.703125 0.921875 C 2.816406 0.921875 2.929688 0.9375 3.046875 0.96875 C 3.085938 0.976562 3.378906 1.085938 3.921875 1.296875 C 4.472656 1.515625 4.972656 1.625 5.421875 1.625 C 6.304688 1.625 6.96875 1.445312 7.40625 1.09375 C 7.84375 0.738281 8.0625 0.238281 8.0625 -0.40625 L 8.0625 -1.28125 C 7.800781 -0.90625 7.398438 -0.566406 6.859375 -0.265625 C 6.328125 0.0351562 5.753906 0.1875 5.140625 0.1875 C 4.304688 0.1875 3.539062 -0.0234375 2.84375 -0.453125 C 2.15625 -0.878906 1.613281 -1.46875 1.21875 -2.21875 C 0.820312 -2.976562 0.625 -3.84375 0.625 -4.8125 C 0.625 -5.769531 0.816406 -6.628906 1.203125 -7.390625 C 1.597656 -8.148438 2.132812 -8.742188 2.8125 -9.171875 C 3.488281 -9.597656 4.242188 -9.8125 5.078125 -9.8125 C 5.691406 -9.8125 6.257812 -9.679688 6.78125 -9.421875 C 7.3125 -9.171875 7.738281 -8.867188 8.0625 -8.515625 L 8.0625 -8.71875 C 8.0625 -9.03125 8.160156 -9.289062 8.359375 -9.5 C 8.566406 -9.707031 8.828125 -9.8125 9.140625 -9.8125 Z M 5.421875 -1.796875 C 6.222656 -1.796875 6.878906 -2.082031 7.390625 -2.65625 C 7.898438 -3.226562 8.15625 -3.945312 8.15625 -4.8125 C 8.15625 -5.675781 7.898438 -6.394531 7.390625 -6.96875 C 6.878906 -7.539062 6.222656 -7.828125 5.421875 -7.828125 C 4.617188 -7.828125 3.960938 -7.539062 3.453125 -6.96875 C 2.953125 -6.394531 2.703125 -5.675781 2.703125 -4.8125 C 2.703125 -3.945312 2.953125 -3.226562 3.453125 -2.65625 C 3.960938 -2.082031 4.617188 -1.796875 5.421875 -1.796875 Z M 5.421875 -1.796875 "/></g></g></g><g fill="#ffffff" fill-opacity="1"><g transform="translate(230.129707, 255.494105)"><g><path d="M 6.3125 -9.8125 C 7.539062 -9.8125 8.390625 -9.445312 8.859375 -8.71875 C 9.328125 -7.988281 9.5625 -6.984375 9.5625 -5.703125 L 9.5625 -1.09375 C 9.5625 -0.78125 9.457031 -0.519531 9.25 -0.3125 C 9.050781 -0.101562 8.796875 0 8.484375 0 C 8.171875 0 7.910156 -0.101562 7.703125 -0.3125 C 7.492188 -0.519531 7.390625 -0.78125 7.390625 -1.09375 L 7.390625 -5.703125 C 7.390625 -6.367188 7.25 -6.890625 6.96875 -7.265625 C 6.695312 -7.640625 6.226562 -7.828125 5.5625 -7.828125 C 4.863281 -7.828125 4.316406 -7.625 3.921875 -7.21875 C 3.523438 -6.820312 3.328125 -6.316406 3.328125 -5.703125 L 3.328125 -1.09375 C 3.328125 -0.78125 3.222656 -0.519531 3.015625 -0.3125 C 2.816406 -0.101562 2.5625 0 2.25 0 C 1.9375 0 1.675781 -0.101562 1.46875 -0.3125 C 1.269531 -0.519531 1.171875 -0.78125 1.171875 -1.09375 L 1.171875 -8.53125 C 1.171875 -8.84375 1.269531 -9.101562 1.46875 -9.3125 C 1.675781 -9.519531 1.9375 -9.625 2.25 -9.625 C 2.5625 -9.625 2.816406 -9.519531 3.015625 -9.3125 C 3.222656 -9.101562 3.328125 -8.84375 3.328125 -8.53125 L 3.328125 -8.21875 C 3.648438 -8.65625 4.070312 -9.03125 4.59375 -9.34375 C 5.113281 -9.65625 5.6875 -9.8125 6.3125 -9.8125 Z M 6.3125 -9.8125 "/></g></g></g><g clip-path="url(#31c3820ead)"><path fill="#ffffff" d="M 231.59375 192.667969 L 143.097656 192.667969 C 137.839844 192.667969 133.472656 188.828125 132.609375 183.792969 L 242.070312 183.792969 C 241.230469 188.828125 236.851562 192.667969 231.59375 192.667969 Z M 139.320312 121.132812 C 139.320312 119.855469 140.316406 118.84375 141.59375 118.84375 L 233.078125 118.84375 C 234.351562 118.84375 235.359375 119.855469 235.359375 121.132812 L 235.359375 180.210938 L 139.320312 180.210938 Z M 243.988281 180.230469 L 238.917969 180.230469 L 238.917969 121.132812 C 238.917969 117.917969 236.3125 115.296875 233.089844 115.296875 L 141.59375 115.296875 C 138.386719 115.296875 135.773438 117.917969 135.773438 121.132812 L 135.773438 180.210938 L 130.703125 180.210938 C 129.714844 180.230469 128.929688 181.023438 128.929688 182.011719 C 128.929688 189.847656 135.285156 196.230469 143.097656 196.230469 L 231.59375 196.230469 C 239.40625 196.230469 245.761719 189.847656 245.761719 182.011719 C 245.761719 181.023438 244.984375 180.230469 243.988281 180.230469 " fill-opacity="1" fill-rule="nonzero"/></g><path fill="#ffffff" d="M 225.203125 172.300781 L 149.488281 172.300781 L 149.488281 126.871094 L 225.195312 126.871094 L 225.195312 172.300781 Z M 226.980469 123.320312 L 147.710938 123.320312 C 146.726562 123.320312 145.9375 124.109375 145.9375 125.101562 L 145.9375 174.082031 C 145.9375 175.070312 146.726562 175.859375 147.710938 175.859375 L 226.957031 175.859375 C 227.941406 175.859375 228.730469 175.070312 228.730469 174.082031 L 228.730469 125.101562 C 228.753906 124.109375 227.941406 123.320312 226.980469 123.320312 " fill-opacity="1" fill-rule="nonzero"/><path fill="#ffffff" d="M 182.355469 163.691406 C 182.5625 163.765625 182.75 163.796875 182.949219 163.796875 C 183.675781 163.796875 184.347656 163.339844 184.609375 162.609375 L 193.308594 137.734375 C 193.640625 136.796875 193.144531 135.789062 192.242188 135.464844 C 191.308594 135.132812 190.300781 135.632812 189.96875 136.550781 L 181.265625 161.425781 C 180.957031 162.351562 181.453125 163.359375 182.355469 163.691406 Z M 210.019531 149.953125 L 198.175781 159.375 C 197.40625 159.976562 197.273438 161.089844 197.882812 161.863281 C 198.226562 162.296875 198.753906 162.539062 199.261719 162.539062 C 199.648438 162.539062 200.03125 162.414062 200.363281 162.152344 L 213.949219 151.359375 C 214.367188 151.035156 214.625 150.515625 214.625 149.984375 C 214.625 149.453125 214.375 148.945312 213.960938 148.601562 L 199.8125 137.015625 C 199.046875 136.402344 197.9375 136.507812 197.335938 137.277344 C 196.710938 138.046875 196.824219 139.160156 197.582031 139.765625 Z M 174.328125 162.152344 C 174.660156 162.414062 175.042969 162.539062 175.429688 162.539062 C 175.957031 162.539062 176.464844 162.296875 176.808594 161.863281 C 177.417969 161.089844 177.285156 159.976562 176.515625 159.375 L 164.671875 149.953125 L 177.109375 139.765625 C 177.867188 139.152344 177.980469 138.027344 177.355469 137.277344 C 176.746094 136.507812 175.625 136.402344 174.878906 137.015625 L 160.730469 148.601562 C 160.316406 148.945312 160.066406 149.433594 160.066406 149.984375 C 160.066406 150.515625 160.324219 151.035156 160.75 151.359375 L 174.328125 162.152344 " fill-opacity="1" fill-rule="nonzero"/></svg>